<svg width="15" height="15" viewBox="0 0 15 15" fill="none" xmlns="http://www.w3.org/2000/svg">
<path d="M5.06836 1.63476C4.49414 1.78125 4.04297 2.30273 4.04297 2.82422C4.04297 2.91211 3.90234 2.92383 2.6543 2.94141C1.31836 2.95898 1.24805 2.96484 0.984375 3.09961C0.650391 3.26953 0.345703 3.57422 0.164062 3.92578L0.0292969 4.18945V8.17383V12.1582L0.164062 12.4219C0.357422 12.791 0.667969 13.0957 1.01953 13.2539L1.31836 13.3887H7.5H13.6816L13.9863 13.248C14.3789 13.0723 14.7188 12.709 14.877 12.2812C15 11.9531 15 11.8828 15 8.17969C15 4.99219 14.9883 4.37109 14.9121 4.11914C14.8008 3.74414 14.4141 3.30469 14.0273 3.10547C13.752 2.96484 13.6992 2.95898 12.3516 2.94141L10.9688 2.91797L10.9277 2.70703C10.8457 2.27344 10.6113 1.94531 10.2246 1.74023C9.99609 1.61719 9.92578 1.61133 7.61719 1.59961C6.31055 1.59375 5.16797 1.61133 5.06836 1.63476ZM9.99609 2.47851C10.1367 2.60156 10.1602 2.67187 10.1895 3.07031C10.2188 3.42187 10.2539 3.54492 10.3418 3.60937C10.4297 3.67383 10.7637 3.69141 11.9766 3.69141C13.377 3.69141 13.5176 3.70312 13.7402 3.80859C13.8926 3.88476 14.0273 4.00781 14.1094 4.1543L14.2383 4.38281L14.2266 8.22656C14.209 11.9941 14.209 12.0645 14.0859 12.2227C14.0215 12.3105 13.8926 12.4395 13.8047 12.5039C13.6465 12.627 13.6113 12.627 7.5 12.627C1.38867 12.627 1.35352 12.627 1.19531 12.5039C1.10742 12.4395 0.978516 12.3105 0.914062 12.2227C0.791016 12.0645 0.791016 12.0117 0.791016 8.17383C0.791016 4.33594 0.791016 4.2832 0.914062 4.125C1.21289 3.7207 1.18945 3.72656 3 3.69141C4.86328 3.65625 4.80469 3.67383 4.80469 3.1582C4.80469 2.8125 4.88672 2.57812 5.05664 2.44922C5.17383 2.35547 5.39648 2.34375 7.51172 2.34375H9.83789L9.99609 2.47851Z" fill="black"/>
<path d="M12.3809 4.6992C12.123 4.76366 11.8945 5.05662 11.8945 5.30858C11.8945 5.85936 12.416 6.19334 12.8906 5.94725C13.1367 5.81834 13.2422 5.6367 13.2422 5.32616C13.2422 4.85741 12.8496 4.57616 12.3809 4.6992Z" fill="black"/>
<path d="M6.62237 5.07536C5.29815 5.45036 4.35479 6.45231 4.06768 7.80582C3.71612 9.45817 4.7708 11.2804 6.38213 11.7902C6.92119 11.9601 7.76495 12.0011 8.28643 11.8781C9.62823 11.5617 10.6419 10.5187 10.929 9.1652C11.0931 8.3859 10.9935 7.6652 10.6126 6.8859C10.2259 6.10661 9.4876 5.45622 8.65557 5.16325C8.1751 4.98747 7.09698 4.94645 6.62237 5.07536ZM8.38018 5.90739C9.66924 6.33512 10.472 7.74723 10.1731 9.04801C9.74541 10.8937 7.72393 11.7668 6.09502 10.8117C4.0501 9.61637 4.50127 6.47575 6.79815 5.84879C7.25518 5.72575 7.89971 5.74918 8.38018 5.90739Z" fill="black"/>
</svg>
